<svg width="88" height="39" viewBox="0 0 88 39" fill="none" xmlns="http://www.w3.org/2000/svg">
<path d="M14.0236 30.6045C12.3621 30.6045 10.9119 30.2598 9.67288 29.5705C8.43385 28.8537 7.46233 27.8887 6.75834 26.6755V39H0V8.47826H5.87131V11.9936C6.68794 10.7529 7.71577 9.78791 8.9548 9.09862C10.1938 8.40933 11.6441 8.06469 13.3055 8.06469C14.798 8.06469 16.1637 8.35419 17.4027 8.93319C18.6699 9.5122 19.7681 10.3118 20.6974 11.3319C21.6267 12.3521 22.3448 13.5376 22.8516 14.8887C23.3585 16.2397 23.612 17.701 23.612 19.2725C23.612 21.4231 23.2036 23.3531 22.387 25.0626C21.5704 26.772 20.4299 28.123 18.9656 29.1156C17.5294 30.1082 15.8821 30.6045 14.0236 30.6045ZM11.7426 25.0212C12.4748 25.0212 13.1365 24.8696 13.7279 24.5663C14.3474 24.2354 14.8824 23.8081 15.333 23.2842C15.7835 22.7603 16.1215 22.1538 16.3467 21.4645C16.6002 20.7476 16.7269 20.0032 16.7269 19.2312C16.7269 18.4316 16.5861 17.701 16.3045 17.0392C16.0511 16.3775 15.685 15.7985 15.2063 15.3022C14.7276 14.7784 14.1644 14.3786 13.5167 14.1029C12.869 13.8271 12.165 13.6893 11.4047 13.6893C10.9541 13.6893 10.4895 13.7582 10.0108 13.8961C9.56024 14.0339 9.12376 14.2407 8.70136 14.5164C8.30713 14.7646 7.94105 15.0679 7.60313 15.4263C7.26522 15.7847 6.98362 16.1983 6.75834 16.667V21.1336C7.0681 21.878 7.47641 22.5398 7.98329 23.1188C8.49017 23.6978 9.06744 24.1665 9.71512 24.5249C10.3628 24.8558 11.0386 25.0212 11.7426 25.0212Z" fill="#4078F4"/>
<path d="M36.7336 30.6045C34.8469 30.6045 33.1573 30.3012 31.6649 29.6946C30.2006 29.088 28.9615 28.2609 27.9478 27.2131C26.934 26.1654 26.1596 24.9661 25.6246 23.6151C25.1177 22.2641 24.8643 20.8441 24.8643 19.3552C24.8643 17.8388 25.1177 16.4051 25.6246 15.0541C26.1596 13.7031 26.934 12.5037 27.9478 11.456C28.9615 10.4083 30.2006 9.58112 31.6649 8.97455C33.1573 8.36797 34.8469 8.06469 36.7336 8.06469C38.6203 8.06469 40.2958 8.36797 41.7601 8.97455C43.2245 9.58112 44.4635 10.4083 45.4772 11.456C46.491 12.5037 47.2654 13.7031 47.8004 15.0541C48.3354 16.4051 48.603 17.8388 48.603 19.3552C48.603 20.8441 48.3354 22.2641 47.8004 23.6151C47.2654 24.9661 46.491 26.1654 45.4772 27.2131C44.4635 28.2609 43.2245 29.088 41.7601 29.6946C40.2958 30.3012 38.6203 30.6045 36.7336 30.6045ZM31.7916 19.3552C31.7916 20.4857 32.0028 21.4783 32.4252 22.333C32.8757 23.1877 33.4671 23.8494 34.1992 24.3181C34.9314 24.7868 35.7762 25.0212 36.7336 25.0212C37.6629 25.0212 38.4936 24.7868 39.2258 24.3181C39.9861 23.8218 40.5774 23.1463 40.9998 22.2916C41.4222 21.4369 41.6334 20.4581 41.6334 19.3552C41.6334 18.2248 41.4222 17.2322 40.9998 16.3775C40.5774 15.5228 39.9861 14.8611 39.2258 14.3924C38.4936 13.9236 37.6629 13.6893 36.7336 13.6893C35.7762 13.6893 34.9314 13.9236 34.1992 14.3924C33.4671 14.8611 32.8757 15.5228 32.4252 16.3775C32.0028 17.2322 31.7916 18.2248 31.7916 19.3552Z" fill="#4078F4"/>
<path d="M61.6699 30.6045C59.7832 30.6045 58.0936 30.3012 56.6011 29.6946C55.1368 29.088 53.8978 28.2609 52.884 27.2131C51.8703 26.1654 51.0959 24.9661 50.5608 23.6151C50.054 22.2641 49.8005 20.8441 49.8005 19.3552C49.8005 17.8388 50.054 16.4051 50.5608 15.0541C51.0959 13.7031 51.8703 12.5037 52.884 11.456C53.8978 10.4083 55.1368 9.58112 56.6011 8.97455C58.0936 8.36797 59.7832 8.06469 61.6699 8.06469C63.5566 8.06469 65.2321 8.36797 66.6964 8.97455C68.1607 9.58112 69.3997 10.4083 70.4135 11.456C71.4272 12.5037 72.2016 13.7031 72.7366 15.0541C73.2717 16.4051 73.5392 17.8388 73.5392 19.3552C73.5392 20.8441 73.2717 22.2641 72.7366 23.6151C72.2016 24.9661 71.4272 26.1654 70.4135 27.2131C69.3997 28.2609 68.1607 29.088 66.6964 29.6946C65.2321 30.3012 63.5566 30.6045 61.6699 30.6045ZM56.7278 19.3552C56.7278 20.4857 56.939 21.4783 57.3614 22.333C57.812 23.1877 58.4033 23.8494 59.1355 24.3181C59.8676 24.7868 60.7124 25.0212 61.6699 25.0212C62.5991 25.0212 63.4298 24.7868 64.162 24.3181C64.9223 23.8218 65.5137 23.1463 65.9361 22.2916C66.3585 21.4369 66.5697 20.4581 66.5697 19.3552C66.5697 18.2248 66.3585 17.2322 65.9361 16.3775C65.5137 15.5228 64.9223 14.8611 64.162 14.3924C63.4298 13.9236 62.5991 13.6893 61.6699 13.6893C60.7124 13.6893 59.8676 13.9236 59.1355 14.3924C58.4033 14.8611 57.812 15.5228 57.3614 16.3775C56.939 17.2322 56.7278 18.2248 56.7278 19.3552Z" fill="#4078F4"/>
<path d="M75.9617 0H82.72V22.4571C82.72 23.3669 82.889 24.0148 83.2269 24.4008C83.5648 24.7869 84.0435 24.9799 84.6631 24.9799C85.0855 24.9799 85.5079 24.9247 85.9303 24.8144C86.3808 24.6766 86.775 24.5249 87.113 24.3595L88 29.3224C87.1552 29.7084 86.1837 30.0117 85.0855 30.2322C83.9872 30.4528 82.9594 30.5631 82.002 30.5631C80.0871 30.5631 78.5946 30.0668 77.5246 29.0742C76.4827 28.0541 75.9617 26.6204 75.9617 24.7731V0Z" fill="#4078F4"/>
</svg>
